<mxfile host="app.diagrams.net" modified="2024-03-12T19:00:21.786Z" agent="Mozilla/5.0 (Windows NT 10.0; Win64; x64) AppleWebKit/537.36 (KHTML, like Gecko) Chrome/122.0.0.0 Safari/537.36" etag="o-ZRPyQKN2fUgqYt9E0p" version="24.0.5" type="device">
  <diagram name="Страница — 1" id="cxiVbwSySTbXbMA1NLyR">
    <mxGraphModel dx="1050" dy="541" grid="1" gridSize="10" guides="1" tooltips="1" connect="1" arrows="1" fold="1" page="1" pageScale="1" pageWidth="827" pageHeight="1169" math="0" shadow="0">
      <root>
        <mxCell id="0" />
        <mxCell id="1" parent="0" />
        <mxCell id="KmjDHXBSyAd8QgUszkPB-1" value="User" style="swimlane;fontStyle=0;childLayout=stackLayout;horizontal=1;startSize=30;horizontalStack=0;resizeParent=1;resizeParentMax=0;resizeLast=0;collapsible=1;marginBottom=0;whiteSpace=wrap;html=1;strokeWidth=1;fontFamily=Times New Roman;fontSize=14;fontColor=#000000;" parent="1" vertex="1">
          <mxGeometry x="320" y="340" width="140" height="210" as="geometry" />
        </mxCell>
        <mxCell id="KmjDHXBSyAd8QgUszkPB-2" value="username: String" style="text;strokeColor=none;fillColor=none;align=left;verticalAlign=middle;spacingLeft=4;spacingRight=4;overflow=hidden;points=[[0,0.5],[1,0.5]];portConstraint=eastwest;rotatable=0;whiteSpace=wrap;html=1;strokeWidth=1;fontFamily=Times New Roman;fontSize=14;fontColor=#000000;" parent="KmjDHXBSyAd8QgUszkPB-1" vertex="1">
          <mxGeometry y="30" width="140" height="30" as="geometry" />
        </mxCell>
        <mxCell id="KEVhZGOboC4FJpivNmd3-1" value="&lt;font style=&quot;font-size: 14px;&quot;&gt;+ email: Char&lt;/font&gt;" style="text;strokeColor=none;fillColor=none;align=left;verticalAlign=middle;spacingLeft=4;spacingRight=4;overflow=hidden;points=[[0,0.5],[1,0.5]];portConstraint=eastwest;rotatable=0;whiteSpace=wrap;html=1;fontColor=#000000;fontSize=14;fontFamily=Times New Roman;" parent="KmjDHXBSyAd8QgUszkPB-1" vertex="1">
          <mxGeometry y="60" width="140" height="30" as="geometry" />
        </mxCell>
        <mxCell id="KmjDHXBSyAd8QgUszkPB-3" value="+ password: char(64)" style="text;strokeColor=none;fillColor=none;align=left;verticalAlign=middle;spacingLeft=4;spacingRight=4;overflow=hidden;points=[[0,0.5],[1,0.5]];portConstraint=eastwest;rotatable=0;whiteSpace=wrap;html=1;strokeWidth=1;fontFamily=Times New Roman;fontSize=14;fontColor=#000000;" parent="KmjDHXBSyAd8QgUszkPB-1" vertex="1">
          <mxGeometry y="90" width="140" height="30" as="geometry" />
        </mxCell>
        <mxCell id="D2NZ7CKMBUIib7-Z0IYx-35" value="" style="endArrow=none;html=1;rounded=0;" edge="1" parent="KmjDHXBSyAd8QgUszkPB-1">
          <mxGeometry width="50" height="50" relative="1" as="geometry">
            <mxPoint y="120" as="sourcePoint" />
            <mxPoint x="140" y="120" as="targetPoint" />
          </mxGeometry>
        </mxCell>
        <mxCell id="KmjDHXBSyAd8QgUszkPB-4" value="&lt;font style=&quot;font-size: 14px;&quot;&gt;+ login()&lt;/font&gt;" style="text;strokeColor=none;fillColor=none;align=left;verticalAlign=middle;spacingLeft=4;spacingRight=4;overflow=hidden;points=[[0,0.5],[1,0.5]];portConstraint=eastwest;rotatable=0;whiteSpace=wrap;html=1;strokeWidth=1;fontFamily=Times New Roman;fontSize=14;fontColor=#000000;" parent="KmjDHXBSyAd8QgUszkPB-1" vertex="1">
          <mxGeometry y="120" width="140" height="30" as="geometry" />
        </mxCell>
        <mxCell id="D2NZ7CKMBUIib7-Z0IYx-16" value="+ registration()" style="text;strokeColor=none;fillColor=none;align=left;verticalAlign=middle;spacingLeft=4;spacingRight=4;overflow=hidden;points=[[0,0.5],[1,0.5]];portConstraint=eastwest;rotatable=0;whiteSpace=wrap;html=1;fontColor=#000000;fontSize=14;fontFamily=Times New Roman;" vertex="1" parent="KmjDHXBSyAd8QgUszkPB-1">
          <mxGeometry y="150" width="140" height="30" as="geometry" />
        </mxCell>
        <mxCell id="KmjDHXBSyAd8QgUszkPB-14" value="+ profile()" style="text;strokeColor=none;fillColor=none;align=left;verticalAlign=middle;spacingLeft=4;spacingRight=4;overflow=hidden;points=[[0,0.5],[1,0.5]];portConstraint=eastwest;rotatable=0;whiteSpace=wrap;html=1;strokeWidth=1;fontFamily=Times New Roman;fontSize=14;fontColor=#000000;" parent="KmjDHXBSyAd8QgUszkPB-1" vertex="1">
          <mxGeometry y="180" width="140" height="30" as="geometry" />
        </mxCell>
        <mxCell id="KmjDHXBSyAd8QgUszkPB-5" value="Product" style="swimlane;fontStyle=0;childLayout=stackLayout;horizontal=1;startSize=30;horizontalStack=0;resizeParent=1;resizeParentMax=0;resizeLast=0;collapsible=1;marginBottom=0;whiteSpace=wrap;html=1;strokeWidth=1;fontFamily=Times New Roman;fontSize=14;fontColor=#000000;" parent="1" vertex="1">
          <mxGeometry x="320" y="40" width="140" height="270" as="geometry" />
        </mxCell>
        <mxCell id="KmjDHXBSyAd8QgUszkPB-6" value="+ name: String" style="text;strokeColor=none;fillColor=none;align=left;verticalAlign=middle;spacingLeft=4;spacingRight=4;overflow=hidden;points=[[0,0.5],[1,0.5]];portConstraint=eastwest;rotatable=0;whiteSpace=wrap;html=1;strokeWidth=1;fontFamily=Times New Roman;fontSize=14;fontColor=#000000;" parent="KmjDHXBSyAd8QgUszkPB-5" vertex="1">
          <mxGeometry y="30" width="140" height="30" as="geometry" />
        </mxCell>
        <mxCell id="KmjDHXBSyAd8QgUszkPB-7" value="+ description: String" style="text;strokeColor=none;fillColor=none;align=left;verticalAlign=middle;spacingLeft=4;spacingRight=4;overflow=hidden;points=[[0,0.5],[1,0.5]];portConstraint=eastwest;rotatable=0;whiteSpace=wrap;html=1;strokeWidth=1;fontFamily=Times New Roman;fontSize=14;fontColor=#000000;" parent="KmjDHXBSyAd8QgUszkPB-5" vertex="1">
          <mxGeometry y="60" width="140" height="30" as="geometry" />
        </mxCell>
        <mxCell id="D2NZ7CKMBUIib7-Z0IYx-22" value="+ price: Integer" style="text;strokeColor=none;fillColor=none;align=left;verticalAlign=middle;spacingLeft=4;spacingRight=4;overflow=hidden;points=[[0,0.5],[1,0.5]];portConstraint=eastwest;rotatable=0;whiteSpace=wrap;html=1;fontColor=#000000;fontSize=14;fontFamily=Times New Roman;" vertex="1" parent="KmjDHXBSyAd8QgUszkPB-5">
          <mxGeometry y="90" width="140" height="30" as="geometry" />
        </mxCell>
        <mxCell id="D2NZ7CKMBUIib7-Z0IYx-23" value="+ quantity: Integer" style="text;strokeColor=none;fillColor=none;align=left;verticalAlign=middle;spacingLeft=4;spacingRight=4;overflow=hidden;points=[[0,0.5],[1,0.5]];portConstraint=eastwest;rotatable=0;whiteSpace=wrap;html=1;fontColor=#000000;fontSize=14;fontFamily=Times New Roman;" vertex="1" parent="KmjDHXBSyAd8QgUszkPB-5">
          <mxGeometry y="120" width="140" height="30" as="geometry" />
        </mxCell>
        <mxCell id="D2NZ7CKMBUIib7-Z0IYx-25" value="+ category: String" style="text;strokeColor=none;fillColor=none;align=left;verticalAlign=middle;spacingLeft=4;spacingRight=4;overflow=hidden;points=[[0,0.5],[1,0.5]];portConstraint=eastwest;rotatable=0;whiteSpace=wrap;html=1;fontColor=#000000;fontSize=14;fontFamily=Times New Roman;" vertex="1" parent="KmjDHXBSyAd8QgUszkPB-5">
          <mxGeometry y="150" width="140" height="30" as="geometry" />
        </mxCell>
        <mxCell id="D2NZ7CKMBUIib7-Z0IYx-36" value="" style="endArrow=none;html=1;rounded=0;" edge="1" parent="KmjDHXBSyAd8QgUszkPB-5">
          <mxGeometry width="50" height="50" relative="1" as="geometry">
            <mxPoint y="180" as="sourcePoint" />
            <mxPoint x="140" y="180" as="targetPoint" />
          </mxGeometry>
        </mxCell>
        <mxCell id="D2NZ7CKMBUIib7-Z0IYx-24" value="+ add()" style="text;strokeColor=none;fillColor=none;align=left;verticalAlign=middle;spacingLeft=4;spacingRight=4;overflow=hidden;points=[[0,0.5],[1,0.5]];portConstraint=eastwest;rotatable=0;whiteSpace=wrap;html=1;fontColor=#000000;fontSize=14;fontFamily=Times New Roman;" vertex="1" parent="KmjDHXBSyAd8QgUszkPB-5">
          <mxGeometry y="180" width="140" height="30" as="geometry" />
        </mxCell>
        <mxCell id="KmjDHXBSyAd8QgUszkPB-8" value="+ edit()" style="text;strokeColor=none;fillColor=none;align=left;verticalAlign=middle;spacingLeft=4;spacingRight=4;overflow=hidden;points=[[0,0.5],[1,0.5]];portConstraint=eastwest;rotatable=0;whiteSpace=wrap;html=1;strokeWidth=1;fontFamily=Times New Roman;fontSize=14;fontColor=#000000;" parent="KmjDHXBSyAd8QgUszkPB-5" vertex="1">
          <mxGeometry y="210" width="140" height="30" as="geometry" />
        </mxCell>
        <mxCell id="KEVhZGOboC4FJpivNmd3-2" value="+ delete()" style="text;strokeColor=none;fillColor=none;align=left;verticalAlign=middle;spacingLeft=4;spacingRight=4;overflow=hidden;points=[[0,0.5],[1,0.5]];portConstraint=eastwest;rotatable=0;whiteSpace=wrap;html=1;fontColor=#000000;fontSize=14;fontFamily=Times New Roman;" parent="KmjDHXBSyAd8QgUszkPB-5" vertex="1">
          <mxGeometry y="240" width="140" height="30" as="geometry" />
        </mxCell>
        <mxCell id="D2NZ7CKMBUIib7-Z0IYx-28" style="edgeStyle=orthogonalEdgeStyle;rounded=0;orthogonalLoop=1;jettySize=auto;html=1;endArrow=diamondThin;endFill=0;fontColor=#000000;fontSize=14;fontFamily=Times New Roman;" edge="1" parent="1" source="KmjDHXBSyAd8QgUszkPB-9" target="D2NZ7CKMBUIib7-Z0IYx-5">
          <mxGeometry relative="1" as="geometry" />
        </mxCell>
        <mxCell id="KmjDHXBSyAd8QgUszkPB-9" value="Product Category" style="swimlane;fontStyle=0;childLayout=stackLayout;horizontal=1;startSize=30;horizontalStack=0;resizeParent=1;resizeParentMax=0;resizeLast=0;collapsible=1;marginBottom=0;whiteSpace=wrap;html=1;strokeWidth=1;fontFamily=Times New Roman;fontSize=14;fontColor=#000000;" parent="1" vertex="1">
          <mxGeometry x="40" y="40" width="140" height="150" as="geometry" />
        </mxCell>
        <mxCell id="KmjDHXBSyAd8QgUszkPB-10" value="+ name: String" style="text;strokeColor=none;fillColor=none;align=left;verticalAlign=middle;spacingLeft=4;spacingRight=4;overflow=hidden;points=[[0,0.5],[1,0.5]];portConstraint=eastwest;rotatable=0;whiteSpace=wrap;html=1;strokeWidth=1;fontFamily=Times New Roman;fontSize=14;fontColor=#000000;" parent="KmjDHXBSyAd8QgUszkPB-9" vertex="1">
          <mxGeometry y="30" width="140" height="30" as="geometry" />
        </mxCell>
        <mxCell id="D2NZ7CKMBUIib7-Z0IYx-37" value="" style="endArrow=none;html=1;rounded=0;" edge="1" parent="KmjDHXBSyAd8QgUszkPB-9">
          <mxGeometry width="50" height="50" relative="1" as="geometry">
            <mxPoint y="60" as="sourcePoint" />
            <mxPoint x="140" y="60" as="targetPoint" />
          </mxGeometry>
        </mxCell>
        <mxCell id="D2NZ7CKMBUIib7-Z0IYx-9" value="+ add()" style="text;strokeColor=none;fillColor=none;align=left;verticalAlign=middle;spacingLeft=4;spacingRight=4;overflow=hidden;points=[[0,0.5],[1,0.5]];portConstraint=eastwest;rotatable=0;whiteSpace=wrap;html=1;fontColor=#000000;fontSize=14;fontFamily=Times New Roman;" vertex="1" parent="KmjDHXBSyAd8QgUszkPB-9">
          <mxGeometry y="60" width="140" height="30" as="geometry" />
        </mxCell>
        <mxCell id="D2NZ7CKMBUIib7-Z0IYx-11" value="+ edit()" style="text;strokeColor=none;fillColor=none;align=left;verticalAlign=middle;spacingLeft=4;spacingRight=4;overflow=hidden;points=[[0,0.5],[1,0.5]];portConstraint=eastwest;rotatable=0;whiteSpace=wrap;html=1;fontColor=#000000;fontSize=14;fontFamily=Times New Roman;" vertex="1" parent="KmjDHXBSyAd8QgUszkPB-9">
          <mxGeometry y="90" width="140" height="30" as="geometry" />
        </mxCell>
        <mxCell id="D2NZ7CKMBUIib7-Z0IYx-12" value="+ delete()" style="text;strokeColor=none;fillColor=none;align=left;verticalAlign=middle;spacingLeft=4;spacingRight=4;overflow=hidden;points=[[0,0.5],[1,0.5]];portConstraint=eastwest;rotatable=0;whiteSpace=wrap;html=1;fontColor=#000000;fontSize=14;fontFamily=Times New Roman;" vertex="1" parent="KmjDHXBSyAd8QgUszkPB-9">
          <mxGeometry y="120" width="140" height="30" as="geometry" />
        </mxCell>
        <mxCell id="D2NZ7CKMBUIib7-Z0IYx-1" value="Basket" style="swimlane;fontStyle=0;childLayout=stackLayout;horizontal=1;startSize=30;horizontalStack=0;resizeParent=1;resizeParentMax=0;resizeLast=0;collapsible=1;marginBottom=0;whiteSpace=wrap;html=1;fontColor=#000000;fontSize=14;fontFamily=Times New Roman;" vertex="1" parent="1">
          <mxGeometry x="630" y="180" width="140" height="210" as="geometry" />
        </mxCell>
        <mxCell id="D2NZ7CKMBUIib7-Z0IYx-2" value="+ user: String" style="text;strokeColor=none;fillColor=none;align=left;verticalAlign=middle;spacingLeft=4;spacingRight=4;overflow=hidden;points=[[0,0.5],[1,0.5]];portConstraint=eastwest;rotatable=0;whiteSpace=wrap;html=1;fontColor=#000000;fontSize=14;fontFamily=Times New Roman;" vertex="1" parent="D2NZ7CKMBUIib7-Z0IYx-1">
          <mxGeometry y="30" width="140" height="30" as="geometry" />
        </mxCell>
        <mxCell id="D2NZ7CKMBUIib7-Z0IYx-18" value="+ products: String[]" style="text;strokeColor=none;fillColor=none;align=left;verticalAlign=middle;spacingLeft=4;spacingRight=4;overflow=hidden;points=[[0,0.5],[1,0.5]];portConstraint=eastwest;rotatable=0;whiteSpace=wrap;html=1;fontColor=#000000;fontSize=14;fontFamily=Times New Roman;" vertex="1" parent="D2NZ7CKMBUIib7-Z0IYx-1">
          <mxGeometry y="60" width="140" height="30" as="geometry" />
        </mxCell>
        <mxCell id="D2NZ7CKMBUIib7-Z0IYx-20" value="+ quantity: Integer" style="text;strokeColor=none;fillColor=none;align=left;verticalAlign=middle;spacingLeft=4;spacingRight=4;overflow=hidden;points=[[0,0.5],[1,0.5]];portConstraint=eastwest;rotatable=0;whiteSpace=wrap;html=1;fontColor=#000000;fontSize=14;fontFamily=Times New Roman;" vertex="1" parent="D2NZ7CKMBUIib7-Z0IYx-1">
          <mxGeometry y="90" width="140" height="30" as="geometry" />
        </mxCell>
        <mxCell id="D2NZ7CKMBUIib7-Z0IYx-38" value="" style="endArrow=none;html=1;rounded=0;" edge="1" parent="D2NZ7CKMBUIib7-Z0IYx-1">
          <mxGeometry width="50" height="50" relative="1" as="geometry">
            <mxPoint y="120" as="sourcePoint" />
            <mxPoint x="140" y="120" as="targetPoint" />
          </mxGeometry>
        </mxCell>
        <mxCell id="D2NZ7CKMBUIib7-Z0IYx-17" value="+ total_sum()" style="text;strokeColor=none;fillColor=none;align=left;verticalAlign=middle;spacingLeft=4;spacingRight=4;overflow=hidden;points=[[0,0.5],[1,0.5]];portConstraint=eastwest;rotatable=0;whiteSpace=wrap;html=1;fontColor=#000000;fontSize=14;fontFamily=Times New Roman;" vertex="1" parent="D2NZ7CKMBUIib7-Z0IYx-1">
          <mxGeometry y="120" width="140" height="30" as="geometry" />
        </mxCell>
        <mxCell id="D2NZ7CKMBUIib7-Z0IYx-3" value="+ add()" style="text;strokeColor=none;fillColor=none;align=left;verticalAlign=middle;spacingLeft=4;spacingRight=4;overflow=hidden;points=[[0,0.5],[1,0.5]];portConstraint=eastwest;rotatable=0;whiteSpace=wrap;html=1;fontColor=#000000;fontSize=14;fontFamily=Times New Roman;" vertex="1" parent="D2NZ7CKMBUIib7-Z0IYx-1">
          <mxGeometry y="150" width="140" height="30" as="geometry" />
        </mxCell>
        <mxCell id="D2NZ7CKMBUIib7-Z0IYx-4" value="+ delete()" style="text;strokeColor=none;fillColor=none;align=left;verticalAlign=middle;spacingLeft=4;spacingRight=4;overflow=hidden;points=[[0,0.5],[1,0.5]];portConstraint=eastwest;rotatable=0;whiteSpace=wrap;html=1;fontColor=#000000;fontSize=14;fontFamily=Times New Roman;" vertex="1" parent="D2NZ7CKMBUIib7-Z0IYx-1">
          <mxGeometry y="180" width="140" height="30" as="geometry" />
        </mxCell>
        <mxCell id="D2NZ7CKMBUIib7-Z0IYx-5" value="Admin" style="swimlane;fontStyle=0;childLayout=stackLayout;horizontal=1;startSize=30;horizontalStack=0;resizeParent=1;resizeParentMax=0;resizeLast=0;collapsible=1;marginBottom=0;whiteSpace=wrap;html=1;fontColor=#000000;fontSize=14;fontFamily=Times New Roman;" vertex="1" parent="1">
          <mxGeometry x="40" y="340" width="140" height="210" as="geometry" />
        </mxCell>
        <mxCell id="D2NZ7CKMBUIib7-Z0IYx-6" value="+ username: String" style="text;strokeColor=none;fillColor=none;align=left;verticalAlign=middle;spacingLeft=4;spacingRight=4;overflow=hidden;points=[[0,0.5],[1,0.5]];portConstraint=eastwest;rotatable=0;whiteSpace=wrap;html=1;fontColor=#000000;fontSize=14;fontFamily=Times New Roman;" vertex="1" parent="D2NZ7CKMBUIib7-Z0IYx-5">
          <mxGeometry y="30" width="140" height="30" as="geometry" />
        </mxCell>
        <mxCell id="D2NZ7CKMBUIib7-Z0IYx-13" value="+ email: Char" style="text;strokeColor=none;fillColor=none;align=left;verticalAlign=middle;spacingLeft=4;spacingRight=4;overflow=hidden;points=[[0,0.5],[1,0.5]];portConstraint=eastwest;rotatable=0;whiteSpace=wrap;html=1;fontColor=#000000;fontSize=14;fontFamily=Times New Roman;" vertex="1" parent="D2NZ7CKMBUIib7-Z0IYx-5">
          <mxGeometry y="60" width="140" height="30" as="geometry" />
        </mxCell>
        <mxCell id="D2NZ7CKMBUIib7-Z0IYx-15" value="+ password: Char" style="text;strokeColor=none;fillColor=none;align=left;verticalAlign=middle;spacingLeft=4;spacingRight=4;overflow=hidden;points=[[0,0.5],[1,0.5]];portConstraint=eastwest;rotatable=0;whiteSpace=wrap;html=1;fontColor=#000000;fontSize=14;fontFamily=Times New Roman;" vertex="1" parent="D2NZ7CKMBUIib7-Z0IYx-5">
          <mxGeometry y="90" width="140" height="30" as="geometry" />
        </mxCell>
        <mxCell id="D2NZ7CKMBUIib7-Z0IYx-39" value="" style="endArrow=none;html=1;rounded=0;" edge="1" parent="D2NZ7CKMBUIib7-Z0IYx-5">
          <mxGeometry width="50" height="50" relative="1" as="geometry">
            <mxPoint y="120" as="sourcePoint" />
            <mxPoint x="140" y="120" as="targetPoint" />
          </mxGeometry>
        </mxCell>
        <mxCell id="D2NZ7CKMBUIib7-Z0IYx-14" value="+ add()" style="text;strokeColor=none;fillColor=none;align=left;verticalAlign=middle;spacingLeft=4;spacingRight=4;overflow=hidden;points=[[0,0.5],[1,0.5]];portConstraint=eastwest;rotatable=0;whiteSpace=wrap;html=1;fontColor=#000000;fontSize=14;fontFamily=Times New Roman;" vertex="1" parent="D2NZ7CKMBUIib7-Z0IYx-5">
          <mxGeometry y="120" width="140" height="30" as="geometry" />
        </mxCell>
        <mxCell id="D2NZ7CKMBUIib7-Z0IYx-7" value="+ edit()" style="text;strokeColor=none;fillColor=none;align=left;verticalAlign=middle;spacingLeft=4;spacingRight=4;overflow=hidden;points=[[0,0.5],[1,0.5]];portConstraint=eastwest;rotatable=0;whiteSpace=wrap;html=1;fontColor=#000000;fontSize=14;fontFamily=Times New Roman;" vertex="1" parent="D2NZ7CKMBUIib7-Z0IYx-5">
          <mxGeometry y="150" width="140" height="30" as="geometry" />
        </mxCell>
        <mxCell id="D2NZ7CKMBUIib7-Z0IYx-8" value="+ delete()" style="text;strokeColor=none;fillColor=none;align=left;verticalAlign=middle;spacingLeft=4;spacingRight=4;overflow=hidden;points=[[0,0.5],[1,0.5]];portConstraint=eastwest;rotatable=0;whiteSpace=wrap;html=1;fontColor=#000000;fontSize=14;fontFamily=Times New Roman;" vertex="1" parent="D2NZ7CKMBUIib7-Z0IYx-5">
          <mxGeometry y="180" width="140" height="30" as="geometry" />
        </mxCell>
        <mxCell id="D2NZ7CKMBUIib7-Z0IYx-26" style="edgeStyle=orthogonalEdgeStyle;rounded=0;orthogonalLoop=1;jettySize=auto;html=1;entryX=0;entryY=0.5;entryDx=0;entryDy=0;fontColor=#000000;fontSize=14;fontFamily=Times New Roman;" edge="1" parent="1" source="D2NZ7CKMBUIib7-Z0IYx-9" target="D2NZ7CKMBUIib7-Z0IYx-25">
          <mxGeometry relative="1" as="geometry" />
        </mxCell>
        <mxCell id="D2NZ7CKMBUIib7-Z0IYx-27" value="Включает&lt;div style=&quot;font-size: 14px;&quot;&gt;в себя&lt;/div&gt;" style="edgeLabel;html=1;align=center;verticalAlign=middle;resizable=0;points=[];fontColor=#000000;fontSize=14;fontFamily=Times New Roman;" vertex="1" connectable="0" parent="D2NZ7CKMBUIib7-Z0IYx-26">
          <mxGeometry x="-0.113" y="-2" relative="1" as="geometry">
            <mxPoint as="offset" />
          </mxGeometry>
        </mxCell>
        <mxCell id="D2NZ7CKMBUIib7-Z0IYx-29" style="edgeStyle=orthogonalEdgeStyle;rounded=0;orthogonalLoop=1;jettySize=auto;html=1;entryX=0.75;entryY=0;entryDx=0;entryDy=0;endArrow=diamondThin;endFill=0;fontColor=#000000;fontSize=14;fontFamily=Times New Roman;" edge="1" parent="1" source="D2NZ7CKMBUIib7-Z0IYx-24" target="D2NZ7CKMBUIib7-Z0IYx-5">
          <mxGeometry relative="1" as="geometry" />
        </mxCell>
        <mxCell id="D2NZ7CKMBUIib7-Z0IYx-31" style="edgeStyle=orthogonalEdgeStyle;rounded=0;orthogonalLoop=1;jettySize=auto;html=1;entryX=1;entryY=0.5;entryDx=0;entryDy=0;endArrow=diamondThin;endFill=0;fontColor=#000000;fontSize=14;fontFamily=Times New Roman;" edge="1" parent="1" source="KEVhZGOboC4FJpivNmd3-1" target="D2NZ7CKMBUIib7-Z0IYx-13">
          <mxGeometry relative="1" as="geometry" />
        </mxCell>
        <mxCell id="D2NZ7CKMBUIib7-Z0IYx-32" style="edgeStyle=orthogonalEdgeStyle;rounded=0;orthogonalLoop=1;jettySize=auto;html=1;entryX=0;entryY=0.094;entryDx=0;entryDy=0;entryPerimeter=0;fontColor=#000000;fontSize=14;fontFamily=Times New Roman;" edge="1" parent="1" source="KEVhZGOboC4FJpivNmd3-1" target="D2NZ7CKMBUIib7-Z0IYx-1">
          <mxGeometry relative="1" as="geometry" />
        </mxCell>
        <mxCell id="D2NZ7CKMBUIib7-Z0IYx-33" value="Может&lt;div style=&quot;font-size: 14px;&quot;&gt;воспользоваться&lt;/div&gt;" style="edgeLabel;html=1;align=center;verticalAlign=middle;resizable=0;points=[];fontColor=#000000;fontSize=14;fontFamily=Times New Roman;" vertex="1" connectable="0" parent="D2NZ7CKMBUIib7-Z0IYx-32">
          <mxGeometry x="-0.1591" relative="1" as="geometry">
            <mxPoint y="-23" as="offset" />
          </mxGeometry>
        </mxCell>
      </root>
    </mxGraphModel>
  </diagram>
</mxfile>
